<svg width="412" height="130" viewBox="0 0 412 130" fill="none" xmlns="http://www.w3.org/2000/svg">
<path d="M53.336 32.472V42.936H32.888V99H20.696V42.936H0.248001V32.472H53.336Z" fill="#333333"/>
<path d="M53.9518 74.136C53.9518 69.72 54.5918 65.848 55.8717 62.52C57.2158 59.192 58.9758 56.44 61.1518 54.264C63.3278 52.024 65.8238 50.36 68.6398 49.272C71.4558 48.12 74.3358 47.544 77.2798 47.544C84.1918 47.544 89.5677 49.688 93.4078 53.976C97.3118 58.264 99.2638 64.664 99.2638 73.176C99.2638 73.816 99.2318 74.552 99.1678 75.384C99.1678 76.152 99.1358 76.856 99.0718 77.496H65.9518C66.2718 81.528 67.6797 84.664 70.1758 86.904C72.7357 89.08 76.4157 90.168 81.2158 90.168C84.0318 90.168 86.5918 89.912 88.8958 89.4C91.2637 88.888 93.1198 88.344 94.4638 87.768L95.9998 97.272C95.3598 97.592 94.4638 97.944 93.3118 98.328C92.2238 98.648 90.9438 98.936 89.4718 99.192C88.0638 99.512 86.5278 99.768 84.8638 99.96C83.1998 100.152 81.5038 100.248 79.7757 100.248C75.3597 100.248 71.5198 99.608 68.2558 98.328C64.9918 96.984 62.3038 95.16 60.1918 92.856C58.0798 90.488 56.5117 87.736 55.4878 84.6C54.4638 81.4 53.9518 77.912 53.9518 74.136ZM87.6478 68.952C87.6478 67.352 87.4238 65.848 86.9758 64.44C86.5278 62.968 85.8558 61.72 84.9598 60.696C84.1278 59.608 83.0718 58.776 81.7918 58.2C80.5758 57.56 79.1038 57.24 77.3758 57.24C75.5838 57.24 74.0158 57.592 72.6718 58.296C71.3278 58.936 70.1758 59.8 69.2158 60.888C68.3197 61.976 67.6158 63.224 67.1038 64.632C66.5918 66.04 66.2398 67.48 66.0478 68.952H87.6478Z" fill="#333333"/>
<path d="M124.156 90.648C127.228 90.648 129.467 90.296 130.876 89.592C132.284 88.824 132.988 87.544 132.988 85.752C132.988 84.088 132.219 82.712 130.684 81.624C129.212 80.536 126.748 79.352 123.292 78.072C121.18 77.304 119.228 76.504 117.436 75.672C115.708 74.776 114.203 73.752 112.924 72.6C111.644 71.448 110.619 70.072 109.852 68.472C109.147 66.808 108.796 64.792 108.796 62.424C108.796 57.816 110.492 54.2 113.883 51.576C117.275 48.888 121.884 47.544 127.708 47.544C130.652 47.544 133.467 47.832 136.156 48.408C138.844 48.92 140.86 49.432 142.204 49.944L140.092 59.352C138.812 58.776 137.179 58.264 135.195 57.816C133.212 57.304 130.908 57.048 128.284 57.048C125.916 57.048 123.996 57.464 122.524 58.296C121.052 59.064 120.316 60.28 120.316 61.944C120.316 62.776 120.444 63.512 120.7 64.152C121.02 64.792 121.532 65.4 122.236 65.976C122.94 66.488 123.868 67.032 125.02 67.608C126.172 68.12 127.579 68.664 129.243 69.24C131.995 70.264 134.332 71.288 136.252 72.312C138.172 73.272 139.74 74.392 140.956 75.672C142.236 76.888 143.163 78.296 143.74 79.896C144.316 81.496 144.604 83.416 144.604 85.656C144.604 90.456 142.812 94.104 139.228 96.6C135.708 99.032 130.652 100.248 124.06 100.248C119.644 100.248 116.092 99.864 113.404 99.096C110.715 98.392 108.827 97.816 107.74 97.368L109.756 87.672C111.483 88.376 113.532 89.048 115.9 89.688C118.332 90.328 121.084 90.648 124.156 90.648Z" fill="#333333"/>
<path d="M154.878 35.544L166.495 33.624V48.792H184.351V58.488H166.495V78.936C166.495 82.968 167.135 85.848 168.415 87.576C169.695 89.304 171.87 90.168 174.943 90.168C177.055 90.168 178.91 89.944 180.51 89.496C182.174 89.048 183.486 88.632 184.447 88.248L186.367 97.464C185.023 98.04 183.262 98.616 181.087 99.192C178.911 99.832 176.35 100.152 173.406 100.152C169.822 100.152 166.815 99.672 164.383 98.712C162.015 97.752 160.127 96.376 158.719 94.584C157.311 92.728 156.319 90.52 155.743 87.96C155.167 85.336 154.878 82.36 154.878 79.032V35.544Z" fill="#333333"/>
<path d="M204 25C204 11.1929 215.193 0 229 0H387C400.807 0 412 11.1929 412 25V105C412 118.807 400.807 130 387 130H229C215.193 130 204 118.807 204 105V25Z" fill="url(#paint0_linear)"/>
<path d="M230.392 99V26.424L242.008 24.504V49.368C243.288 48.92 244.76 48.536 246.424 48.216C248.152 47.896 249.848 47.736 251.512 47.736C255.544 47.736 258.872 48.312 261.496 49.464C264.184 50.552 266.328 52.12 267.928 54.168C269.528 56.152 270.648 58.552 271.288 61.368C271.992 64.184 272.344 67.32 272.344 70.776V99H260.728V72.6C260.728 69.912 260.536 67.64 260.152 65.784C259.832 63.864 259.256 62.328 258.424 61.176C257.656 59.96 256.6 59.096 255.256 58.584C253.912 58.008 252.248 57.72 250.264 57.72C248.728 57.72 247.16 57.88 245.56 58.2C243.96 58.52 242.776 58.808 242.008 59.064V99H230.392ZM327.451 97.464C325.211 98.04 322.299 98.616 318.715 99.192C315.131 99.832 311.195 100.152 306.907 100.152C302.875 100.152 299.483 99.576 296.731 98.424C294.043 97.272 291.867 95.672 290.203 93.624C288.603 91.576 287.451 89.144 286.747 86.328C286.043 83.448 285.691 80.312 285.691 76.92V48.792H297.307V75.096C297.307 80.472 298.075 84.312 299.611 86.616C301.211 88.92 303.963 90.072 307.867 90.072C309.275 90.072 310.747 90.008 312.283 89.88C313.883 89.752 315.067 89.592 315.835 89.4V48.792H327.451V97.464ZM375.548 73.752C375.548 68.824 374.556 64.92 372.572 62.04C370.652 59.16 367.58 57.72 363.356 57.72C361.436 57.72 359.612 58.008 357.884 58.584C356.22 59.16 354.876 59.8 353.852 60.504V89.4C354.684 89.592 355.74 89.784 357.02 89.976C358.364 90.104 359.964 90.168 361.82 90.168C366.108 90.168 369.468 88.728 371.9 85.848C374.332 82.904 375.548 78.872 375.548 73.752ZM387.452 73.944C387.452 77.976 386.844 81.624 385.628 84.888C384.476 88.088 382.78 90.84 380.54 93.144C378.364 95.448 375.708 97.208 372.572 98.424C369.436 99.64 365.884 100.248 361.916 100.248C358.076 100.248 354.396 99.96 350.876 99.384C347.42 98.808 344.54 98.168 342.236 97.464V26.424L353.852 24.504V50.52C355.196 49.816 356.828 49.176 358.748 48.6C360.732 48.024 362.908 47.736 365.276 47.736C368.796 47.736 371.932 48.376 374.684 49.656C377.5 50.872 379.836 52.632 381.692 54.936C383.548 57.24 384.956 60.024 385.916 63.288C386.94 66.488 387.452 70.04 387.452 73.944Z" fill="#FAFAFA"/>
<defs>
<linearGradient id="paint0_linear" x1="216" y1="6.31293e-06" x2="406" y2="130" gradientUnits="userSpaceOnUse">
<stop stop-color="#F97D0B"/>
<stop offset="1" stop-color="#FF5E1A"/>
</linearGradient>
</defs>
</svg>
